<svg xmlns="http://www.w3.org/2000/svg" viewBox="0 0 64 64" fill="none">
  <g stroke="#3CFF6A" stroke-width="3.5" stroke-linecap="round" stroke-linejoin="round">
    <path d="M16 36 V14" />
    <path d="M16 14 a3 3 0 0 1 6 0 V32" />
    <path d="M22 22 a3 3 0 0 1 6 0 V30" />
    <path d="M28 26 a3 3 0 0 1 6 0 V32" />
    <path d="M40 38 V12" />
    <path d="M40 12 a3 3 0 0 1 6 0 V34" />
    <path d="M16 36 Q14 50 22 54 H38 Q46 52 46 38" />
  </g>
  <g fill="#3CFF6A">
    <circle cx="22" cy="42" r="1.6" />
    <circle cx="30" cy="46" r="1.6" />
    <circle cx="38" cy="42" r="1.6" />
  </g>
</svg>
